<svg xmlns="http://www.w3.org/2000/svg" width="720" height="980" viewBox="0 0 720 980">
<rect width="720" height="980" rx="38" fill="#fbfffc"/>
<text x="48" y="58" font-family="Inter, Arial, sans-serif" font-size="31" font-weight="900" fill="#071526">Cattle Disease Heatmap</text>
<text x="48" y="92" font-family="Inter, Arial, sans-serif" font-size="22" font-weight="650" fill="#657282">Bangladesh • district-style risk snapshot</text>
<g font-family="Inter, Arial, sans-serif">
<rect x="38" y="116" width="644" height="650" rx="28" fill="#f7fbf8" stroke="#d9e7dc" stroke-width="2"/>
<clipPath id="bdClip"><path d="M 602.3 583.3 L 600.1 659.0 L 563.3 643.0 L 570.2 728.0 L 540.0 672.9 L 533.9 619.1 L 513.8 568.3 L 469.7 506.8 L 372.4 502.6 L 382.0 546.1 L 348.8 604.9 L 303.9 583.5 L 288.5 602.7 L 258.6 591.2 L 217.8 581.7 L 201.3 494.8 L 164.7 415.3 L 182.7 351.7 L 117.7 323.4 L 141.1 284.9 L 207.2 245.6 L 130.9 189.7 L 168.3 118.0 L 251.9 163.6 L 302.3 168.8 L 311.6 242.3 L 412.1 256.8 L 510.1 255.2 L 571.0 273.2 L 522.3 362.6 L 475.0 368.7 L 442.4 428.8 L 500.2 483.6 L 517.5 416.1 L 546.7 415.7 L 602.3 583.3 Z"/></clipPath>
<g clip-path="url(#bdClip)">
<path d="M 549.3 611.4 L 573.4 584.9 L 602.3 584.1 L 600.2 656.0 L 549.3 611.4 Z" fill="#dff5c8" stroke="#5f765f" stroke-width="0.65"/><path d="M 267.0 558.1 L 215.3 568.6 L 213.5 558.9 L 240.8 527.2 L 257.5 525.6 L 269.8 536.6 L 267.0 558.1 Z" fill="#78c943" stroke="#5f765f" stroke-width="0.65"/><path d="M 267.0 558.1 L 269.8 536.6 L 311.1 530.1 L 312.7 531.1 L 318.0 568.0 L 309.8 586.3 L 303.9 583.5 L 288.5 602.7 L 277.2 598.4 L 267.0 558.1 Z" fill="#bceb62" stroke="#5f765f" stroke-width="0.65"/><path d="M 318.0 568.0 L 312.7 531.1 L 376.0 518.9 L 382.0 546.1 L 370.0 567.4 L 318.0 568.0 Z" fill="#dff5c8" stroke="#5f765f" stroke-width="0.65"/><path d="M 549.5 551.2 L 549.1 564.2 L 519.9 583.7 L 513.8 568.3 L 505.1 556.2 L 549.5 551.2 Z" fill="#78c943" stroke="#5f765f" stroke-width="0.65"/><path d="M 573.4 584.9 L 549.1 564.2 L 549.5 551.2 L 553.1 530.1 L 585.7 533.1 L 602.3 583.3 L 602.3 584.1 L 573.4 584.9 Z" fill="#78c943" stroke="#5f765f" stroke-width="0.65"/><path d="M 257.5 525.6 L 240.8 527.2 L 201.5 495.4 L 201.3 494.8 L 200.1 492.2 L 219.6 474.2 L 263.9 480.3 L 257.5 525.6 Z" fill="#78c943" stroke="#5f765f" stroke-width="0.65"/><path d="M 304.5 486.8 L 311.1 530.1 L 269.8 536.6 L 257.5 525.6 L 263.9 480.3 L 265.6 479.0 L 304.5 486.8 Z" fill="#4b902f" stroke="#5f765f" stroke-width="0.65"/><path d="M 312.7 531.1 L 311.1 530.1 L 304.5 486.8 L 319.6 472.9 L 363.3 482.6 L 379.1 502.7 L 379.1 502.9 L 372.4 502.6 L 376.0 518.9 L 312.7 531.1 Z" fill="#bceb62" stroke="#5f765f" stroke-width="0.65"/><path d="M 449.8 485.7 L 452.9 506.1 L 379.1 502.9 L 379.1 502.7 L 409.0 480.0 L 449.8 485.7 Z" fill="#bceb62" stroke="#5f765f" stroke-width="0.65"/><path d="M 474.4 459.1 L 500.2 483.6 L 501.5 478.6 L 504.2 481.5 L 503.8 485.2 L 476.9 516.9 L 469.7 506.8 L 452.9 506.1 L 449.8 485.7 L 474.4 459.1 Z" fill="#78c943" stroke="#5f765f" stroke-width="0.65"/><path d="M 504.2 481.5 L 552.7 479.1 L 551.3 528.1 L 516.0 527.2 L 503.8 485.2 L 504.2 481.5 Z" fill="#4b902f" stroke="#5f765f" stroke-width="0.65"/><path d="M 553.1 530.1 L 551.3 528.1 L 552.7 479.1 L 563.8 467.3 L 585.7 533.1 L 553.1 530.1 Z" fill="#78c943" stroke="#5f765f" stroke-width="0.65"/><path d="M 200.1 492.2 L 173.0 433.4 L 216.9 432.8 L 218.9 434.9 L 219.6 474.2 L 200.1 492.2 Z" fill="#dff5c8" stroke="#5f765f" stroke-width="0.65"/><path d="M 263.9 480.3 L 219.6 474.2 L 218.9 434.9 L 259.6 430.1 L 270.5 442.4 L 265.6 479.0 L 263.9 480.3 Z" fill="#bceb62" stroke="#5f765f" stroke-width="0.65"/><path d="M 270.5 442.4 L 310.9 434.3 L 314.3 436.9 L 319.6 472.9 L 304.5 486.8 L 265.6 479.0 L 270.5 442.4 Z" fill="#bceb62" stroke="#5f765f" stroke-width="0.65"/><path d="M 314.3 436.9 L 353.8 427.3 L 365.4 438.0 L 363.3 482.6 L 319.6 472.9 L 314.3 436.9 Z" fill="#78c943" stroke="#5f765f" stroke-width="0.65"/><path d="M 412.6 441.4 L 409.0 480.0 L 379.1 502.7 L 363.3 482.6 L 365.4 438.0 L 401.0 429.6 L 412.6 441.4 Z" fill="#bceb62" stroke="#5f765f" stroke-width="0.65"/><path d="M 448.7 434.8 L 474.4 459.1 L 449.8 485.7 L 409.0 480.0 L 412.6 441.4 L 448.7 434.8 Z" fill="#bceb62" stroke="#5f765f" stroke-width="0.65"/><path d="M 552.7 479.1 L 504.2 481.5 L 501.5 478.6 L 517.5 416.1 L 546.7 415.7 L 563.8 467.3 L 552.7 479.1 Z" fill="#dff5c8" stroke="#5f765f" stroke-width="0.65"/><path d="M 216.1 389.2 L 216.9 432.8 L 173.0 433.4 L 164.7 415.3 L 171.2 392.3 L 216.1 389.2 Z" fill="#dff5c8" stroke="#5f765f" stroke-width="0.65"/><path d="M 263.2 390.9 L 264.9 393.2 L 259.6 430.1 L 218.9 434.9 L 216.9 432.8 L 216.1 389.2 L 216.2 389.0 L 263.2 390.9 Z" fill="#dff5c8" stroke="#5f765f" stroke-width="0.65"/><path d="M 259.6 430.1 L 264.9 393.2 L 305.4 399.0 L 310.9 434.3 L 270.5 442.4 L 259.6 430.1 Z" fill="#bceb62" stroke="#5f765f" stroke-width="0.65"/><path d="M 305.4 399.0 L 317.2 385.4 L 355.4 393.6 L 353.8 427.3 L 314.3 436.9 L 310.9 434.3 L 305.4 399.0 Z" fill="#4b902f" stroke="#5f765f" stroke-width="0.65"/><path d="M 355.4 393.6 L 363.4 386.7 L 403.9 396.6 L 401.0 429.6 L 365.4 438.0 L 353.8 427.3 L 355.4 393.6 Z" fill="#27621e" stroke="#5f765f" stroke-width="0.65"/><path d="M 403.9 396.6 L 410.6 391.2 L 457.1 401.8 L 442.4 428.8 L 448.7 434.8 L 412.6 441.4 L 401.0 429.6 L 403.9 396.6 Z" fill="#bceb62" stroke="#5f765f" stroke-width="0.65"/><path d="M 174.3 347.5 L 215.6 356.4 L 216.2 389.0 L 216.1 389.2 L 171.2 392.3 L 182.7 351.7 L 174.0 347.9 L 174.3 347.5 Z" fill="#bceb62" stroke="#5f765f" stroke-width="0.65"/><path d="M 262.5 348.6 L 267.8 355.6 L 263.2 390.9 L 216.2 389.0 L 215.6 356.4 L 223.4 346.9 L 262.5 348.6 Z" fill="#dff5c8" stroke="#5f765f" stroke-width="0.65"/><path d="M 267.8 355.6 L 312.5 352.7 L 317.2 385.4 L 305.4 399.0 L 264.9 393.2 L 263.2 390.9 L 267.8 355.6 Z" fill="#78c943" stroke="#5f765f" stroke-width="0.65"/><path d="M 312.5 352.7 L 313.8 350.8 L 355.2 344.1 L 365.0 353.6 L 363.4 386.7 L 355.4 393.6 L 317.2 385.4 L 312.5 352.7 Z" fill="#4b902f" stroke="#5f765f" stroke-width="0.65"/><path d="M 365.0 353.6 L 400.9 345.4 L 413.6 357.9 L 410.6 391.2 L 403.9 396.6 L 363.4 386.7 L 365.0 353.6 Z" fill="#4b902f" stroke="#5f765f" stroke-width="0.65"/><path d="M 452.7 348.3 L 479.1 368.2 L 475.0 368.7 L 457.1 401.8 L 410.6 391.2 L 413.6 357.9 L 452.7 348.3 Z" fill="#78c943" stroke="#5f765f" stroke-width="0.65"/><path d="M 166.6 306.6 L 171.6 310.7 L 174.6 336.0 L 174.3 347.5 L 174.0 347.9 L 117.7 323.4 L 121.2 317.7 L 166.6 306.6 Z" fill="#dff5c8" stroke="#5f765f" stroke-width="0.65"/><path d="M 174.6 336.0 L 171.6 310.7 L 213.3 302.2 L 219.5 308.0 L 219.8 325.9 L 174.6 336.0 Z" fill="#dff5c8" stroke="#5f765f" stroke-width="0.65"/><path d="M 219.8 325.9 L 219.5 308.0 L 260.2 303.0 L 267.7 312.3 L 262.5 348.6 L 223.4 346.9 L 219.8 325.9 Z" fill="#4b902f" stroke="#5f765f" stroke-width="0.65"/><path d="M 267.7 312.3 L 307.7 311.6 L 313.8 350.8 L 312.5 352.7 L 267.8 355.6 L 262.5 348.6 L 267.7 312.3 Z" fill="#4b902f" stroke="#5f765f" stroke-width="0.65"/><path d="M 307.7 311.6 L 314.2 303.0 L 357.0 306.9 L 355.2 344.1 L 313.8 350.8 L 307.7 311.6 Z" fill="#4b902f" stroke="#5f765f" stroke-width="0.65"/><path d="M 361.0 303.1 L 404.1 311.0 L 400.9 345.4 L 365.0 353.6 L 355.2 344.1 L 357.0 306.9 L 361.0 303.1 Z" fill="#4b902f" stroke="#5f765f" stroke-width="0.65"/><path d="M 452.7 348.3 L 413.6 357.9 L 400.9 345.4 L 404.1 311.0 L 409.5 306.4 L 447.4 315.4 L 452.7 348.3 Z" fill="#4b902f" stroke="#5f765f" stroke-width="0.65"/><path d="M 493.9 366.3 L 479.1 368.2 L 452.7 348.3 L 447.4 315.4 L 456.5 305.5 L 499.4 312.0 L 493.9 366.3 Z" fill="#bceb62" stroke="#5f765f" stroke-width="0.65"/><path d="M 519.8 307.5 L 543.2 324.2 L 522.3 362.6 L 493.9 366.3 L 499.4 312.0 L 505.8 304.6 L 519.8 307.5 Z" fill="#dff5c8" stroke="#5f765f" stroke-width="0.65"/><path d="M 166.6 306.6 L 121.2 317.7 L 141.1 284.9 L 162.7 272.1 L 166.6 306.6 Z" fill="#dff5c8" stroke="#5f765f" stroke-width="0.65"/><path d="M 212.5 257.8 L 213.3 302.2 L 171.6 310.7 L 166.6 306.6 L 162.7 272.1 L 204.4 247.2 L 212.5 257.8 Z" fill="#dff5c8" stroke="#5f765f" stroke-width="0.65"/><path d="M 213.3 302.2 L 212.5 257.8 L 264.9 267.6 L 260.2 303.0 L 219.5 308.0 L 213.3 302.2 Z" fill="#78c943" stroke="#5f765f" stroke-width="0.65"/><path d="M 260.2 303.0 L 264.9 267.6 L 265.2 267.3 L 309.8 271.8 L 314.2 303.0 L 307.7 311.6 L 267.7 312.3 L 260.2 303.0 Z" fill="#4b902f" stroke="#5f765f" stroke-width="0.65"/><path d="M 361.0 303.1 L 357.0 306.9 L 314.2 303.0 L 309.8 271.8 L 330.4 245.0 L 363.3 249.7 L 361.0 303.1 Z" fill="#78c943" stroke="#5f765f" stroke-width="0.65"/><path d="M 404.1 311.0 L 361.0 303.1 L 363.3 249.7 L 412.1 256.8 L 413.9 256.7 L 409.5 306.4 L 404.1 311.0 Z" fill="#4b902f" stroke="#5f765f" stroke-width="0.65"/><path d="M 457.7 273.8 L 456.5 305.5 L 447.4 315.4 L 409.5 306.4 L 413.9 256.7 L 454.9 256.1 L 457.7 273.8 Z" fill="#78c943" stroke="#5f765f" stroke-width="0.65"/><path d="M 505.5 301.4 L 457.7 273.8 L 454.9 256.1 L 510.1 255.2 L 510.4 255.3 L 505.5 301.4 Z" fill="#dff5c8" stroke="#5f765f" stroke-width="0.65"/><path d="M 519.8 307.5 L 505.8 304.6 L 505.5 301.4 L 510.4 255.3 L 567.0 272.1 L 519.8 307.5 Z" fill="#dff5c8" stroke="#5f765f" stroke-width="0.65"/><path d="M 212.4 227.4 L 258.0 216.9 L 270.4 230.4 L 265.2 267.3 L 264.9 267.6 L 212.5 257.8 L 204.4 247.2 L 207.2 245.6 L 202.0 241.8 L 212.4 227.4 Z" fill="#dff5c8" stroke="#5f765f" stroke-width="0.65"/><path d="M 309.3 223.8 L 311.6 242.3 L 330.4 245.0 L 309.8 271.8 L 265.2 267.3 L 270.4 230.4 L 309.3 223.8 Z" fill="#bceb62" stroke="#5f765f" stroke-width="0.65"/><path d="M 185.2 177.9 L 211.6 183.8 L 212.4 227.4 L 202.0 241.8 L 174.6 221.7 L 185.2 177.9 Z" fill="#dff5c8" stroke="#5f765f" stroke-width="0.65"/><path d="M 211.6 183.8 L 222.1 174.1 L 262.4 184.0 L 258.0 216.9 L 212.4 227.4 L 211.6 183.8 Z" fill="#dff5c8" stroke="#5f765f" stroke-width="0.65"/><path d="M 258.0 216.9 L 262.4 184.0 L 284.2 167.0 L 302.3 168.8 L 309.3 223.8 L 270.4 230.4 L 258.0 216.9 Z" fill="#dff5c8" stroke="#5f765f" stroke-width="0.65"/><path d="M 222.1 174.1 L 211.6 183.8 L 185.2 177.9 L 149.4 154.1 L 168.3 118.0 L 221.6 147.1 L 222.1 174.1 Z" fill="#dff5c8" stroke="#5f765f" stroke-width="0.65"/><path d="M 262.4 184.0 L 222.1 174.1 L 221.6 147.1 L 251.9 163.6 L 284.2 167.0 L 262.4 184.0 Z" fill="#dff5c8" stroke="#5f765f" stroke-width="0.65"/><path d="M 549.3 611.4 L 600.2 656.0 L 600.1 659.0 L 563.3 643.0 L 570.2 728.0 L 540.0 672.9 L 533.9 619.1 L 531.6 613.4 L 549.3 611.4 Z" fill="#dff5c8" stroke="#5f765f" stroke-width="0.65"/><path d="M 549.1 564.2 L 573.4 584.9 L 549.3 611.4 L 531.6 613.4 L 519.9 583.7 L 549.1 564.2 Z" fill="#dff5c8" stroke="#5f765f" stroke-width="0.65"/><path d="M 516.0 527.2 L 551.3 528.1 L 553.1 530.1 L 549.5 551.2 L 505.1 556.2 L 496.4 544.0 L 516.0 527.2 Z" fill="#4b902f" stroke="#5f765f" stroke-width="0.65"/><path d="M 503.8 485.2 L 516.0 527.2 L 496.4 544.0 L 476.9 516.9 L 503.8 485.2 Z" fill="#4b902f" stroke="#5f765f" stroke-width="0.65"/><path d="M 370.0 567.4 L 348.8 604.9 L 309.8 586.3 L 318.0 568.0 L 370.0 567.4 Z" fill="#bceb62" stroke="#5f765f" stroke-width="0.65"/><path d="M 267.0 558.1 L 277.2 598.4 L 258.6 591.2 L 217.8 581.7 L 215.3 568.6 L 267.0 558.1 Z" fill="#bceb62" stroke="#5f765f" stroke-width="0.65"/><path d="M 240.8 527.2 L 213.5 558.9 L 201.5 495.4 L 240.8 527.2 Z" fill="#78c943" stroke="#5f765f" stroke-width="0.65"/><path d="M 215.6 356.4 L 174.3 347.5 L 174.6 336.0 L 219.8 325.9 L 223.4 346.9 L 215.6 356.4 Z" fill="#dff5c8" stroke="#5f765f" stroke-width="0.65"/><path d="M 185.2 177.9 L 174.6 221.7 L 130.9 189.7 L 149.4 154.1 L 185.2 177.9 Z" fill="#dff5c8" stroke="#5f765f" stroke-width="0.65"/><path d="M 505.8 304.6 L 499.4 312.0 L 456.5 305.5 L 457.7 273.8 L 505.5 301.4 L 505.8 304.6 Z" fill="#bceb62" stroke="#5f765f" stroke-width="0.65"/><path d="M 519.8 307.5 L 567.0 272.1 L 571.0 273.2 L 543.2 324.2 L 519.8 307.5 Z" fill="#dff5c8" stroke="#5f765f" stroke-width="0.65"/>
<path d="M 283.1 122.9 L 290.4 186.3 L 305.2 260.2 L 311.6 334.1 L 323.2 408.1 L 341.1 482.0 L 357.0 529.5" fill="none" stroke="#a7dcf1" stroke-width="10" stroke-linecap="round" stroke-linejoin="round" opacity="0.82"/><path d="M 129.9 328.9 L 193.3 355.3 L 235.5 376.4 L 283.1 402.8 L 320.0 429.2 L 357.0 460.9 L 393.9 492.6 L 430.9 529.5" fill="none" stroke="#a7dcf1" stroke-width="8" stroke-linecap="round" stroke-linejoin="round" opacity="0.82"/><path d="M 425.6 228.5 L 409.8 291.9 L 388.7 360.5 L 372.8 418.6 L 362.3 466.2 L 357.0 529.5" fill="none" stroke="#a7dcf1" stroke-width="7" stroke-linecap="round" stroke-linejoin="round" opacity="0.82"/><path d="M 235.5 587.6 L 277.8 561.2 L 320.0 540.1 L 357.0 529.5 L 404.5 550.7 L 452.0 555.9" fill="none" stroke="#a7dcf1" stroke-width="6" stroke-linecap="round" stroke-linejoin="round" opacity="0.7"/><path d="M 240.8 513.7 L 246.1 550.7 L 240.8 582.3 L 232.4 614.0" fill="none" stroke="#a7dcf1" stroke-width="3" stroke-linecap="round" stroke-linejoin="round" opacity="0.55"/><path d="M 261.9 513.7 L 267.2 550.7 L 261.9 582.3 L 253.5 614.0" fill="none" stroke="#a7dcf1" stroke-width="3" stroke-linecap="round" stroke-linejoin="round" opacity="0.55"/><path d="M 283.1 513.7 L 288.3 550.7 L 283.1 582.3 L 274.6 614.0" fill="none" stroke="#a7dcf1" stroke-width="3" stroke-linecap="round" stroke-linejoin="round" opacity="0.55"/><path d="M 304.2 513.7 L 309.5 550.7 L 304.2 582.3 L 295.7 614.0" fill="none" stroke="#a7dcf1" stroke-width="3" stroke-linecap="round" stroke-linejoin="round" opacity="0.55"/><path d="M 325.3 513.7 L 330.6 550.7 L 325.3 582.3 L 316.8 614.0" fill="none" stroke="#a7dcf1" stroke-width="3" stroke-linecap="round" stroke-linejoin="round" opacity="0.55"/><path d="M 346.4 513.7 L 351.7 550.7 L 346.4 582.3 L 338.0 614.0" fill="none" stroke="#a7dcf1" stroke-width="3" stroke-linecap="round" stroke-linejoin="round" opacity="0.55"/><path d="M 378.1 513.7 L 383.4 550.7 L 378.1 582.3 L 369.7 614.0" fill="none" stroke="#a7dcf1" stroke-width="3" stroke-linecap="round" stroke-linejoin="round" opacity="0.55"/>
</g>
<path d="M 602.3 583.3 L 600.1 659.0 L 563.3 643.0 L 570.2 728.0 L 540.0 672.9 L 533.9 619.1 L 513.8 568.3 L 469.7 506.8 L 372.4 502.6 L 382.0 546.1 L 348.8 604.9 L 303.9 583.5 L 288.5 602.7 L 258.6 591.2 L 217.8 581.7 L 201.3 494.8 L 164.7 415.3 L 182.7 351.7 L 117.7 323.4 L 141.1 284.9 L 207.2 245.6 L 130.9 189.7 L 168.3 118.0 L 251.9 163.6 L 302.3 168.8 L 311.6 242.3 L 412.1 256.8 L 510.1 255.2 L 571.0 273.2 L 522.3 362.6 L 475.0 368.7 L 442.4 428.8 L 500.2 483.6 L 517.5 416.1 L 546.7 415.7 L 602.3 583.3 Z" fill="none" stroke="#6f806f" stroke-width="2.2"/>
<text x="240.8" y="191.6" text-anchor="middle" font-size="16" font-weight="800" fill="#071526">Rangpur</text><text x="188.0" y="328.9" text-anchor="middle" font-size="16" font-weight="800" fill="#071526">Rajshahi</text><text x="357.0" y="297.2" text-anchor="middle" font-size="16" font-weight="800" fill="#071526">Mymensingh</text><text x="504.8" y="286.6" text-anchor="middle" font-size="16" font-weight="800" fill="#071526">Sylhet</text><text x="367.5" y="406.0" text-anchor="middle" font-size="16" font-weight="800" fill="#071526">Dhaka</text><text x="240.8" y="497.9" text-anchor="middle" font-size="16" font-weight="800" fill="#071526">Khulna</text><text x="351.7" y="519.0" text-anchor="middle" font-size="16" font-weight="800" fill="#071526">Barishal</text><text x="499.6" y="529.5" text-anchor="middle" font-size="16" font-weight="800" fill="#071526">Chattogram</text><text x="251.4" y="286.6" text-anchor="middle" font-size="16" font-weight="800" fill="#071526">Bogura</text><text x="309.5" y="350.0" text-anchor="middle" font-size="16" font-weight="800" fill="#071526">Tangail</text><text x="441.5" y="434.5" text-anchor="middle" font-size="16" font-weight="800" fill="#071526">Cumilla</text>
<text x="590" y="155" font-size="28" font-weight="900" fill="#071526">N</text><path d="M600 205 L578 260 L600 245 L622 260 Z" fill="#071526"/>
<g transform="translate(420 740)"><rect x="0" y="0" width="40" height="9" fill="#071526"/><rect x="40" y="0" width="40" height="9" fill="#fff" stroke="#071526"/><rect x="80" y="0" width="40" height="9" fill="#071526"/><rect x="120" y="0" width="40" height="9" fill="#fff" stroke="#071526"/><text x="0" y="28" font-size="13" fill="#071526">0</text><text x="75" y="28" font-size="13" fill="#071526">80</text><text x="145" y="28" font-size="13" fill="#071526">160 km</text></g>
<rect x="482" y="40" width="150" height="74" rx="37" fill="#f4f8f5"/>
<text x="557" y="73" text-anchor="middle" font-size="18" font-weight="900" fill="#071526">BD</text>
<text x="557" y="99" text-anchor="middle" font-size="18" font-weight="900" fill="#071526">map</text>
<text x="58" y="805" font-size="18" font-weight="900" letter-spacing="4" fill="#657282">CASE RANGE</text>
<rect x="58" y="820" width="34" height="18" fill="#dff5c8" stroke="#9db79e"/><text x="106" y="834" font-size="17" font-weight="700" fill="#071526">1–5 Low</text><rect x="58" y="845" width="34" height="18" fill="#bceb62" stroke="#9db79e"/><text x="106" y="859" font-size="17" font-weight="700" fill="#071526">6–20 Moderate</text><rect x="58" y="870" width="34" height="18" fill="#78c943" stroke="#9db79e"/><text x="106" y="884" font-size="17" font-weight="700" fill="#071526">21–50 High</text><rect x="58" y="895" width="34" height="18" fill="#4b902f" stroke="#9db79e"/><text x="106" y="909" font-size="17" font-weight="700" fill="#071526">51–100 Severe</text><rect x="58" y="920" width="34" height="18" fill="#27621e" stroke="#9db79e"/><text x="106" y="934" font-size="17" font-weight="700" fill="#071526">100+ Outbreak</text><rect x="58" y="945" width="34" height="18" fill="#a7dcf1" stroke="#9db79e"/><text x="106" y="959" font-size="17" font-weight="700" fill="#071526">Rivers</text>
<text x="380" y="805" font-size="18" font-weight="900" letter-spacing="3" fill="#657282">HIGHEST ALERT</text>
<text x="380" y="845" font-size="26" font-weight="900" fill="#071526">Dhaka, Chattogram</text>
<text x="380" y="878" font-size="18" font-weight="700" fill="#657282">Sample cattle outbreak intensity</text>
</g>
</svg>